<?xml version="1.0"?>
<svg xmlns="http://www.w3.org/2000/svg" xmlns:xlink="http://www.w3.org/1999/xlink" version="1.1" id="Layer_1" x="0px" y="0px" viewBox="0 0 512 512" style="enable-background:new 0 0 512 512;" xml:space="preserve" width="512px" height="512px"><g><circle style="fill:#9EA7DB;" cx="256" cy="256" r="256" data-original="#9EA7DB"/><path style="fill:#8C95C9;" d="M500.1,333.5L303.9,137.3L148.6,284.6l207.2,207.2C424.2,462.8,477.4,405,500.1,333.5z" data-original="#8C95C9"/><path style="fill:#817C85;" d="M204.8,100.1c58.5-9.2,113.4,30.7,122.6,89.2c5.7,36.1-7.4,70.9-32,94.4l8.8,10.8l-11.3,9.2  l-8.7-10.7c-13.2,9.6-28.8,16.2-46,18.9c-58.5,9.2-113.4-30.7-122.7-89.2C106.4,164.2,146.3,109.3,204.8,100.1z M206.8,112.4  c51.7-8.1,100.2,27.1,108.4,78.8S288,291.4,236.3,299.6s-100.2-27.1-108.4-78.8C119.8,169.1,155.1,120.6,206.8,112.4z" data-original="#817C85"/><polygon style="fill:#58515E;" points="285.8,292.4 285.1,293.1 292.9,303.7 294,302.8 " data-original="#58515E"/><path style="fill:#FF8C8A;" d="M288.6,307.1l19.8-16c3-2.4,7.4-1.9,9.8,1l74.7,92.8c2.4,3,1.9,7.4-1,9.8l-19.8,16  c-3,2.4-7.3,1.9-9.7-1l-74.8-92.8C285.2,313.9,285.6,309.5,288.6,307.1z" data-original="#FF8C8A"/><circle style="fill:#F8F8F8;" cx="221.5" cy="206" r="95.1" data-original="#F8F8F8"/><path style="fill:#FA7876;" d="M288.6,307.1l2-1.6c-2.5,2.5-2.8,6.5-0.6,9.3l74.8,92.9c2.2,2.7,6.1,3.3,9,1.6l-1.8,1.4  c-3,2.4-7.3,1.9-9.7-1l-74.8-92.8C285.2,313.9,285.6,309.5,288.6,307.1z" data-original="#FA7876"/><path style="fill:#EAEAED;" d="M306.6,186.3c0,57.9-46.9,104.9-104.9,104.9c-10.3,0-20.2-1.5-29.6-4.2c-0.5-0.1-1-0.3-1.5-0.4  c14.7,9.3,32.1,14.7,50.8,14.7c52.6,0,95.1-42.6,95.1-95.1c0-18.7-5.4-36.1-14.7-50.8c0.1,0.4,0.3,0.9,0.4,1.4  C305.2,166,306.6,176,306.6,186.3z" data-original="#EAEAED" class="active-path"/></g> </svg>
