<?xml version="1.0"?>
<svg xmlns="http://www.w3.org/2000/svg" id="Layer_1" enable-background="new 0 0 512 512" height="512px" viewBox="0 0 512 512" width="512px"><g><g><path d="m274.524 512h-37.049c-5.254 0-10.125-2.749-12.841-7.247-11.39-18.864-36.208-31.053-63.229-31.053-18.486 0-35.919 5.535-49.089 15.587-3.427 2.617-7.813 3.631-12.041 2.785-4.228-.845-7.887-3.468-10.045-7.2l-49.62-85.806c-2.233-3.861-2.632-8.518-1.087-12.703s4.873-7.466 9.08-8.95c38.301-13.52 65.051-58.887 65.051-110.326 0-49.85-24.636-93.605-61.304-108.881-3.983-1.66-7.061-4.955-8.441-9.045-1.382-4.089-.936-8.574 1.225-12.311l38.996-67.433c3.719-6.43 11.586-9.169 18.491-6.444 8.266 3.262 17.114 4.916 26.301 4.916 34.463 0 62.5-23.726 62.5-52.889 0-8.284 6.716-15 15-15h99.156c8.284 0 15 6.716 15 15 0 29.163 28.037 52.889 62.5 52.889 9.188 0 18.036-1.654 26.3-4.915 6.907-2.727 14.771.013 18.492 6.443l38.997 67.434c2.16 3.736 2.607 8.222 1.226 12.311-1.382 4.09-4.458 7.385-8.442 9.045-36.668 15.275-61.305 59.031-61.305 108.881 0 51.439 26.75 96.807 65.051 110.326 4.207 1.484 7.535 4.766 9.08 8.95 1.545 4.186 1.146 8.842-1.087 12.703l-49.62 85.806c-2.158 3.732-5.817 6.355-10.045 7.2-4.229.845-8.614-.168-12.041-2.785-13.17-10.052-30.603-15.587-49.089-15.587-23.188 0-44.73 8.826-57.768 23.637l-6.173 8.486c-2.822 3.88-7.331 6.176-12.13 6.176z" data-original="#000000" class="active-path" data-old_color="#000000" fill="#FFFFFF"/></g></g> </svg>
